<?xml version="1.0" encoding="utf-8"?>
<!-- Generator: Adobe Illustrator 26.3.1, SVG Export Plug-In . SVG Version: 6.00 Build 0)  -->
<svg version="1.1" id="movies-icon" xmlns="http://www.w3.org/2000/svg" xmlns:xlink="http://www.w3.org/1999/xlink" x="0px" y="0px"
	 viewBox="0 0 483 426" style="enable-background:new 0 0 483 426;" xml:space="preserve">
<style type="text/css">
	.st0{fill:#FFFFFF}
</style>
<g>
	<path class="movies-icon" d="M459.3,162.9H190.5l263.7-51.3c3.7-0.9,7-2.8,8.9-6.1c1.9-3.3,2.8-7,1.9-10.3l-15.9-79.3
		c0-0.5-0.5-0.9-0.5-1.4c-0.5-0.9-0.5-1.9-0.9-2.3c-0.5-0.9-0.9-1.4-1.9-2.3c-0.5-0.5-0.5-0.9-0.9-1.4c0,0-0.5-0.5-0.9-0.5
		c-0.9-0.5-1.4-0.9-2.3-1.4s-1.4-0.9-2.3-0.9s-1.9-0.5-2.3-0.5h-2.8h-0.9L17.9,85.9c-3.7,0.9-7,2.8-8.9,6.1c-1.9,3.3-2.8,7-1.9,10.3
		l15.4,77.9v221.2c0,7.5,6.1,14,14,14h422.8c7.5,0,14-6.1,14-14v-225C473.3,168.9,467.3,162.9,459.3,162.9L459.3,162.9z M36.5,110.6
		l50.4-9.8l-42.5,48.1L36.5,110.6z M435.1,86.8l-49.9,9.8l42.5-48.1L435.1,86.8z M190.5,80.3l-57.9,65.3l-59.3,11.7L131.2,92
		L190.5,80.3z M294.6,60.2l-57.9,65.3l-59.3,11.7l57.9-65.3L294.6,60.2z M398.2,40.1l-57.9,65.3L281,116.6l57.9-65.3L398.2,40.1z"/>
</g>
</svg>
