<?xml version="1.0" encoding="utf-8"?>
<!-- Generator: Adobe Illustrator 26.3.1, SVG Export Plug-In . SVG Version: 6.00 Build 0)  -->
<svg version="1.1" id="Capa_1" xmlns="http://www.w3.org/2000/svg" xmlns:xlink="http://www.w3.org/1999/xlink" x="0px" y="0px"
	 viewBox="0 0 524.9 474.4" style="enable-background:new 0 0 524.9 474.4;" xml:space="preserve">
<style type="text/css">
	.st0{fill-rule:evenodd;clip-rule:evenodd;fill:#FFFFFF;}
</style>
<g>
	<path class="st0" d="M90.8,134.4c-26,0-47.1,17.7-47.1,39.6v181.8c0,21.9,21.1,39.6,47.1,39.6h273.3c26,0,75.1,1.7,75.1-20.2
		l-7.3-203c38.1-65.3-41.8-37.8-67.8-37.8H90.8z M62.5,174c0-13.1,12.7-23.7,28.3-23.7h273.3c15.6,0,28.3,10.7,28.3,23.7v181.8
		c0,13.1-12.7,23.7-28.3,23.7H90.8c-15.6,0-28.3-10.7-28.3-23.7L62.5,174L62.5,174z"/>
	<g>
		<path class="st0" d="M414.9,230.1c0-13.6,46.7-36.5,62.9-36.5s14.1,61.5,14.1,75c0,13.6-40.1,6.4-56.3,6.4
			S414.9,243.6,414.9,230.1z M455.3,221.5c-8.1,0-14.7,5.5-14.7,12.3s6.6,12.3,14.7,12.3c8.1,0,14.7-5.5,14.7-12.3
			C470,227,463.4,221.5,455.3,221.5z"/>
		<path class="st0" d="M457.3,147.6c-16.2,0-33.3,7-33.3,20.5c0,13.6-3.4,68.7,33.3,45.3c13.2-8.4,29.4-27.7,29.4-41.3
			C486.7,158.7,473.5,147.6,457.3,147.6z M442.6,172.3c0-6.8,6.6-12.3,14.7-12.3c8.1,0,14.7,5.5,14.7,12.3s-6.6,12.3-14.7,12.3
			C449.2,184.6,442.6,179.1,442.6,172.3z"/>
	</g>
	<g>
		<path class="st0" d="M425.9,354.7c0-13.6,13.2-24.6,29.4-24.6s29.4,11,29.4,24.6s-13.2,24.6-29.4,24.6S425.9,368.2,425.9,354.7z
			 M455.3,342.4c-8.1,0-14.7,5.5-14.7,12.3s6.6,12.3,14.7,12.3c8.1,0,14.7-5.5,14.7-12.3C470,347.9,463.4,342.4,455.3,342.4z"/>
		<path class="st0" d="M465,255.6c-16.2,0-53.9,32.5-53.9,46s15.3,36,31.5,36s59.2,6.1,59.2-7.5C501.8,316.5,481.2,255.6,465,255.6z
			 M440.6,293.1c0-6.8,6.6-12.3,14.7-12.3c8.1,0,14.7,5.5,14.7,12.3s-6.6,12.3-14.7,12.3C447.2,305.5,440.6,300,440.6,293.1z"/>
	</g>
	<path class="st0" d="M418.9,4.3c2.3,3.9,0.6,8.7-3.6,10.7l-128,61.3c6.2,4.3,28.9,11.1,28.9,18.7h182.5c14.5,0,26.2,10.7,26.2,23.7
		v292.6c0,13.1-11.8,23.7-26.2,23.7h-52.5v15.8c0,13.1-11.8,23.7-26.2,23.7h-17.6c-14.5,0-26.2-10.7-26.2-23.7v-15.8H148.6v15.8
		c0,13.1-11.8,23.7-26.2,23.7h-17.5c-14.5,0-26.2-10.7-26.2-23.7v-15.8H26.2C11.7,434.9,0,424.3,0,411.3V118.7
		C0,105.6,11.8,95,26.2,95H206c0-7,24.8-13.3,30.1-17.6L109.5,14.9c-4.2-2.1-5.8-6.9-3.5-10.8c2.3-3.8,7.6-5.2,11.9-3.2l142.4,70.2
		L407.1,1C411.3-1,416.6,0.4,418.9,4.3L418.9,4.3z M388.4,140.1c5.3,5.7,88,15.5,88,19.9l1.5,210.4c0,4.3-79.1,5.7-88.3,9.1
		l-314.1,4.9c-4.8,0-20.5-6.4-20.5-10.8l1.4-223.3c0-4.3,14.9-10.2,19.8-10.2H388.4z"/>
</g>
</svg>
